<?xml version="1.0" standalone="no"?>
<!DOCTYPE svg PUBLIC "-//W3C//DTD SVG 20010904//EN"
 "http://www.w3.org/TR/2001/REC-SVG-20010904/DTD/svg10.dtd">
<svg version="1.0" xmlns="http://www.w3.org/2000/svg"
 width="128.000000pt" height="128.000000pt" viewBox="0 0 128.000000 128.000000"
 preserveAspectRatio="xMidYMid meet">
<metadata>
Created by potrace 1.11, written by Peter Selinger 2001-2013
</metadata>
<g transform="translate(0.000000,128.000000) scale(0.100000,-0.100000)"
fill="#000000" stroke="none">
<path d="M903 1185 c-12 -8 -38 -38 -58 -66 l-38 -50 -36 34 c-51 49 -98 70
-154 69 -51 -1 -139 -36 -193 -77 -17 -13 -43 -27 -57 -30 -26 -7 -48 -49 -52
-100 -7 -68 -29 -166 -51 -218 -20 -47 -24 -70 -20 -101 13 -78 68 -155 158
-221 l27 -20 -38 -60 c-20 -33 -48 -86 -61 -117 -22 -53 -22 -58 -7 -81 22
-34 78 -44 265 -51 136 -5 160 -4 212 14 33 11 66 20 75 20 25 0 17 19 -20 42
-19 13 -47 46 -62 73 -14 28 -49 72 -76 99 l-48 50 59 27 c33 15 80 45 105 68
l44 41 7 -31 c3 -17 6 -94 6 -170 0 -76 4 -140 9 -144 5 -3 16 4 24 16 15 20
15 20 24 -8 l10 -28 19 30 c29 44 23 130 -16 240 -18 50 -38 101 -45 115 -12
22 -8 33 35 117 59 114 74 189 68 333 -4 105 -16 147 -53 184 -20 20 -35 20
-62 1z"/>
</g>
</svg>
